<mxfile host="app.diagrams.net" modified="2023-09-15T10:31:55.223Z" agent="Mozilla/5.0 (Windows NT 10.0; Win64; x64) AppleWebKit/537.36 (KHTML, like Gecko) Chrome/116.0.0.0 Safari/537.36 Edg/116.0.1938.81" etag="l-9pIt_SVrLSY5BElPxf" version="21.7.5" type="device">
  <diagram name="Страница 1" id="2yJljpYPsTSksp_MPqMl">
    <mxGraphModel dx="719" dy="1561" grid="1" gridSize="10" guides="1" tooltips="1" connect="1" arrows="1" fold="1" page="1" pageScale="1" pageWidth="827" pageHeight="1169" math="0" shadow="0">
      <root>
        <mxCell id="0" />
        <mxCell id="1" parent="0" />
        <mxCell id="V0AG9TPLIWUdoYBlm5Sm-69" value="" style="ellipse;whiteSpace=wrap;html=1;" parent="1" vertex="1">
          <mxGeometry x="405" y="70" width="70" height="110" as="geometry" />
        </mxCell>
        <mxCell id="V0AG9TPLIWUdoYBlm5Sm-68" value="" style="ellipse;whiteSpace=wrap;html=1;" parent="1" vertex="1">
          <mxGeometry x="405" y="200" width="70" height="110" as="geometry" />
        </mxCell>
        <mxCell id="V0AG9TPLIWUdoYBlm5Sm-67" value="" style="ellipse;whiteSpace=wrap;html=1;" parent="1" vertex="1">
          <mxGeometry x="405" y="517.5" width="70" height="125" as="geometry" />
        </mxCell>
        <mxCell id="V0AG9TPLIWUdoYBlm5Sm-66" value="" style="ellipse;whiteSpace=wrap;html=1;" parent="1" vertex="1">
          <mxGeometry x="405" y="330" width="70" height="130" as="geometry" />
        </mxCell>
        <mxCell id="V0AG9TPLIWUdoYBlm5Sm-1" value="&lt;font style=&quot;font-size: 28px;&quot;&gt;Plan TG Bot Anekdot&lt;/font&gt;" style="text;html=1;strokeColor=none;fillColor=none;align=center;verticalAlign=middle;whiteSpace=wrap;rounded=0;fontSize=13;" parent="1" vertex="1">
          <mxGeometry x="290" y="20" width="180" height="20" as="geometry" />
        </mxCell>
        <mxCell id="V0AG9TPLIWUdoYBlm5Sm-12" style="edgeStyle=orthogonalEdgeStyle;rounded=0;orthogonalLoop=1;jettySize=auto;html=1;entryX=0;entryY=0.5;entryDx=0;entryDy=0;exitX=0.5;exitY=0;exitDx=0;exitDy=0;" parent="1" source="V0AG9TPLIWUdoYBlm5Sm-2" target="V0AG9TPLIWUdoYBlm5Sm-10" edge="1">
          <mxGeometry relative="1" as="geometry" />
        </mxCell>
        <mxCell id="V0AG9TPLIWUdoYBlm5Sm-2" value="&lt;font color=&quot;#0000ff&quot; style=&quot;font-size: 8px;&quot;&gt;Пользователь&lt;/font&gt;" style="rounded=0;whiteSpace=wrap;html=1;" parent="1" vertex="1">
          <mxGeometry x="30" y="310" width="60" height="20" as="geometry" />
        </mxCell>
        <mxCell id="V0AG9TPLIWUdoYBlm5Sm-10" value="&lt;font color=&quot;#0000ff&quot;&gt;Ввод данных&lt;/font&gt;" style="whiteSpace=wrap;html=1;aspect=fixed;" parent="1" vertex="1">
          <mxGeometry x="120" y="220" width="80" height="80" as="geometry" />
        </mxCell>
        <mxCell id="V0AG9TPLIWUdoYBlm5Sm-14" value="&lt;font style=&quot;font-size: 7px;&quot;&gt;Ввод данных производится посредств. взаимодействия пользователя и тг бота&amp;nbsp;&lt;/font&gt;" style="text;html=1;strokeColor=none;fillColor=none;align=center;verticalAlign=middle;whiteSpace=wrap;rounded=0;" parent="1" vertex="1">
          <mxGeometry x="107.5" y="180" width="105" height="30" as="geometry" />
        </mxCell>
        <mxCell id="V0AG9TPLIWUdoYBlm5Sm-16" style="edgeStyle=orthogonalEdgeStyle;rounded=0;orthogonalLoop=1;jettySize=auto;html=1;exitX=0;exitY=0.5;exitDx=0;exitDy=0;entryX=0.5;entryY=1;entryDx=0;entryDy=0;" parent="1" source="V0AG9TPLIWUdoYBlm5Sm-15" target="V0AG9TPLIWUdoYBlm5Sm-2" edge="1">
          <mxGeometry relative="1" as="geometry" />
        </mxCell>
        <mxCell id="V0AG9TPLIWUdoYBlm5Sm-15" value="&lt;font color=&quot;#00cc00&quot;&gt;Вывод данных&lt;/font&gt;" style="whiteSpace=wrap;html=1;aspect=fixed;" parent="1" vertex="1">
          <mxGeometry x="120" y="320" width="80" height="80" as="geometry" />
        </mxCell>
        <mxCell id="V0AG9TPLIWUdoYBlm5Sm-17" value="" style="strokeWidth=2;html=1;shape=mxgraph.flowchart.annotation_2;align=left;labelPosition=right;pointerEvents=1;" parent="1" vertex="1">
          <mxGeometry x="200" y="210" width="50" height="100" as="geometry" />
        </mxCell>
        <mxCell id="V0AG9TPLIWUdoYBlm5Sm-18" value="&lt;font color=&quot;#ff3333&quot;&gt;/start&lt;/font&gt;" style="rounded=0;whiteSpace=wrap;html=1;" parent="1" vertex="1">
          <mxGeometry x="360" y="100" width="40" height="40" as="geometry" />
        </mxCell>
        <mxCell id="V0AG9TPLIWUdoYBlm5Sm-19" value="&lt;font style=&quot;font-size: 8px;&quot;&gt;Команда /start вызывается при первом запуске бота и должна содержать:&lt;/font&gt;" style="text;html=1;strokeColor=none;fillColor=none;align=center;verticalAlign=middle;whiteSpace=wrap;rounded=0;" parent="1" vertex="1">
          <mxGeometry x="410" y="110" width="60" height="30" as="geometry" />
        </mxCell>
        <mxCell id="V0AG9TPLIWUdoYBlm5Sm-20" value="" style="strokeWidth=2;html=1;shape=mxgraph.flowchart.annotation_2;align=left;labelPosition=right;pointerEvents=1;" parent="1" vertex="1">
          <mxGeometry x="470" y="70" width="50" height="100" as="geometry" />
        </mxCell>
        <mxCell id="V0AG9TPLIWUdoYBlm5Sm-26" style="edgeStyle=orthogonalEdgeStyle;rounded=0;orthogonalLoop=1;jettySize=auto;html=1;entryX=0;entryY=0.5;entryDx=0;entryDy=0;" parent="1" source="V0AG9TPLIWUdoYBlm5Sm-25" target="V0AG9TPLIWUdoYBlm5Sm-18" edge="1">
          <mxGeometry relative="1" as="geometry" />
        </mxCell>
        <mxCell id="V0AG9TPLIWUdoYBlm5Sm-27" style="edgeStyle=orthogonalEdgeStyle;rounded=0;orthogonalLoop=1;jettySize=auto;html=1;" parent="1" source="V0AG9TPLIWUdoYBlm5Sm-25" target="V0AG9TPLIWUdoYBlm5Sm-28" edge="1">
          <mxGeometry relative="1" as="geometry">
            <mxPoint x="360" y="260" as="targetPoint" />
          </mxGeometry>
        </mxCell>
        <mxCell id="V0AG9TPLIWUdoYBlm5Sm-35" style="edgeStyle=orthogonalEdgeStyle;rounded=0;orthogonalLoop=1;jettySize=auto;html=1;entryX=0;entryY=0.5;entryDx=0;entryDy=0;" parent="1" source="V0AG9TPLIWUdoYBlm5Sm-25" target="V0AG9TPLIWUdoYBlm5Sm-34" edge="1">
          <mxGeometry relative="1" as="geometry" />
        </mxCell>
        <mxCell id="V0AG9TPLIWUdoYBlm5Sm-60" style="edgeStyle=orthogonalEdgeStyle;rounded=0;orthogonalLoop=1;jettySize=auto;html=1;entryX=0;entryY=0.5;entryDx=0;entryDy=0;" parent="1" source="V0AG9TPLIWUdoYBlm5Sm-25" target="V0AG9TPLIWUdoYBlm5Sm-57" edge="1">
          <mxGeometry relative="1" as="geometry" />
        </mxCell>
        <mxCell id="V0AG9TPLIWUdoYBlm5Sm-25" value="Команды:&lt;br style=&quot;border-color: var(--border-color); color: rgb(255, 51, 51); font-family: &amp;quot;Comic Sans MS&amp;quot;; text-align: left;&quot;&gt;&lt;span style=&quot;color: rgb(255, 51, 51); font-family: &amp;quot;Comic Sans MS&amp;quot;; text-align: left;&quot;&gt;/start&lt;/span&gt;&lt;br style=&quot;border-color: var(--border-color); color: rgb(255, 51, 51); font-family: &amp;quot;Comic Sans MS&amp;quot;; text-align: left;&quot;&gt;&lt;span style=&quot;color: rgb(255, 51, 51); font-family: &amp;quot;Comic Sans MS&amp;quot;; text-align: left;&quot;&gt;/joke&lt;/span&gt;&lt;br style=&quot;border-color: var(--border-color); color: rgb(255, 51, 51); font-family: &amp;quot;Comic Sans MS&amp;quot;; text-align: left;&quot;&gt;&lt;span style=&quot;color: rgb(255, 51, 51); font-family: &amp;quot;Comic Sans MS&amp;quot;; text-align: left;&quot;&gt;/create&lt;/span&gt;&lt;br style=&quot;border-color: var(--border-color); color: rgb(255, 51, 51); font-family: &amp;quot;Comic Sans MS&amp;quot;; text-align: left;&quot;&gt;&lt;span style=&quot;color: rgb(255, 51, 51); font-family: &amp;quot;Comic Sans MS&amp;quot;; text-align: left;&quot;&gt;/description&lt;/span&gt;" style="text;html=1;strokeColor=none;fillColor=none;align=center;verticalAlign=middle;whiteSpace=wrap;rounded=0;" parent="1" vertex="1">
          <mxGeometry x="250" y="245" width="60" height="30" as="geometry" />
        </mxCell>
        <mxCell id="V0AG9TPLIWUdoYBlm5Sm-28" value="&lt;font color=&quot;#ff3333&quot;&gt;/joke&lt;/font&gt;" style="whiteSpace=wrap;html=1;aspect=fixed;" parent="1" vertex="1">
          <mxGeometry x="360" y="240" width="40" height="40" as="geometry" />
        </mxCell>
        <mxCell id="V0AG9TPLIWUdoYBlm5Sm-29" value="&lt;font color=&quot;#00cc00&quot;&gt;Зеленый&lt;/font&gt;: Вывод данных&lt;br&gt;&lt;font color=&quot;#ff0000&quot;&gt;Красный&lt;/font&gt;: Команды&lt;br&gt;&lt;font color=&quot;#ff8000&quot;&gt;Оранжевый&lt;/font&gt;: Пояснения&lt;br&gt;&lt;font color=&quot;#0000ff&quot;&gt;Синий&lt;/font&gt;: Действия пользователя" style="text;html=1;align=center;verticalAlign=middle;resizable=0;points=[];autosize=1;strokeColor=none;fillColor=none;" parent="1" vertex="1">
          <mxGeometry x="50" y="90" width="200" height="70" as="geometry" />
        </mxCell>
        <mxCell id="V0AG9TPLIWUdoYBlm5Sm-44" style="edgeStyle=orthogonalEdgeStyle;rounded=0;orthogonalLoop=1;jettySize=auto;html=1;" parent="1" source="V0AG9TPLIWUdoYBlm5Sm-30" target="V0AG9TPLIWUdoYBlm5Sm-45" edge="1">
          <mxGeometry relative="1" as="geometry">
            <mxPoint x="680" y="140" as="targetPoint" />
          </mxGeometry>
        </mxCell>
        <mxCell id="V0AG9TPLIWUdoYBlm5Sm-30" value="Кнопки отсутствуют" style="text;html=1;strokeColor=none;fillColor=none;align=center;verticalAlign=middle;whiteSpace=wrap;rounded=0;" parent="1" vertex="1">
          <mxGeometry x="505" y="75" width="110" height="100" as="geometry" />
        </mxCell>
        <mxCell id="V0AG9TPLIWUdoYBlm5Sm-31" value="&lt;font style=&quot;font-size: 8px;&quot;&gt;Команда /joke вызывается по желанию пользователя для получения анекдота&amp;nbsp;&lt;/font&gt;" style="text;html=1;strokeColor=none;fillColor=none;align=center;verticalAlign=middle;whiteSpace=wrap;rounded=0;" parent="1" vertex="1">
          <mxGeometry x="410" y="242.5" width="60" height="35" as="geometry" />
        </mxCell>
        <mxCell id="V0AG9TPLIWUdoYBlm5Sm-32" value="" style="strokeWidth=2;html=1;shape=mxgraph.flowchart.annotation_2;align=left;labelPosition=right;pointerEvents=1;" parent="1" vertex="1">
          <mxGeometry x="470" y="210" width="50" height="100" as="geometry" />
        </mxCell>
        <mxCell id="V0AG9TPLIWUdoYBlm5Sm-33" value="1 Анекдоты для друзей&lt;br&gt;2 Анекдоты для &amp;lt;3&lt;br&gt;3 Анекдоты для родителей&lt;br&gt;4 Анекдоты 18+&lt;br&gt;5 Анекдоты для&amp;nbsp; 60+&lt;br&gt;" style="text;html=1;align=center;verticalAlign=middle;resizable=0;points=[];autosize=1;strokeColor=none;fillColor=none;" parent="1" vertex="1">
          <mxGeometry x="490" y="215" width="170" height="90" as="geometry" />
        </mxCell>
        <mxCell id="V0AG9TPLIWUdoYBlm5Sm-34" value="&lt;font color=&quot;#ff3333&quot;&gt;/create&lt;br&gt;&lt;/font&gt;" style="whiteSpace=wrap;html=1;aspect=fixed;" parent="1" vertex="1">
          <mxGeometry x="360" y="375" width="40" height="40" as="geometry" />
        </mxCell>
        <mxCell id="V0AG9TPLIWUdoYBlm5Sm-41" value="&lt;span style=&quot;font-size: 8px;&quot;&gt;Команда /create вызывается по желанию пользователя для создания своего анекдота&lt;/span&gt;" style="text;html=1;strokeColor=none;fillColor=none;align=center;verticalAlign=middle;whiteSpace=wrap;rounded=0;" parent="1" vertex="1">
          <mxGeometry x="410" y="377.5" width="60" height="35" as="geometry" />
        </mxCell>
        <mxCell id="V0AG9TPLIWUdoYBlm5Sm-42" value="" style="strokeWidth=2;html=1;shape=mxgraph.flowchart.annotation_2;align=left;labelPosition=right;pointerEvents=1;" parent="1" vertex="1">
          <mxGeometry x="470" y="345" width="50" height="100" as="geometry" />
        </mxCell>
        <mxCell id="V0AG9TPLIWUdoYBlm5Sm-45" value="" style="rounded=0;whiteSpace=wrap;html=1;" parent="1" vertex="1">
          <mxGeometry x="720" y="65" width="150" height="120" as="geometry" />
        </mxCell>
        <mxCell id="V0AG9TPLIWUdoYBlm5Sm-47" value="&lt;br style=&quot;border-color: var(--border-color);&quot;&gt;&lt;br&gt;1 Приветствие&lt;br style=&quot;border-color: var(--border-color);&quot;&gt;2 Приветственное фото&lt;br style=&quot;border-color: var(--border-color);&quot;&gt;&amp;nbsp;" style="text;html=1;strokeColor=none;fillColor=none;align=center;verticalAlign=middle;whiteSpace=wrap;rounded=0;" parent="1" vertex="1">
          <mxGeometry x="730" y="105" width="130" height="30" as="geometry" />
        </mxCell>
        <mxCell id="V0AG9TPLIWUdoYBlm5Sm-48" value="" style="rounded=0;whiteSpace=wrap;html=1;" parent="1" vertex="1">
          <mxGeometry x="890" y="20" width="150" height="200" as="geometry" />
        </mxCell>
        <mxCell id="V0AG9TPLIWUdoYBlm5Sm-50" value="Бот-анекдот (лучший сборник анекдотов в РФ)&lt;br style=&quot;border-color: var(--border-color);&quot;&gt;Если вы никогда не смеялись и часто в компании вместо смеха после ваших анекдотов одноклассники молчат и&amp;nbsp; отводят глаза то это ваше спасение лучший сборник анекдотов в РФ&amp;nbsp;" style="text;html=1;strokeColor=none;fillColor=none;align=center;verticalAlign=middle;whiteSpace=wrap;rounded=0;" parent="1" vertex="1">
          <mxGeometry x="900" y="105" width="130" height="30" as="geometry" />
        </mxCell>
        <mxCell id="V0AG9TPLIWUdoYBlm5Sm-51" value="&lt;span style=&quot;&quot;&gt;1 Сообщение&lt;/span&gt;" style="text;html=1;align=center;verticalAlign=middle;resizable=0;points=[];autosize=1;strokeColor=none;fillColor=none;" parent="1" vertex="1">
          <mxGeometry x="745" y="30" width="100" height="30" as="geometry" />
        </mxCell>
        <mxCell id="V0AG9TPLIWUdoYBlm5Sm-52" value="&lt;span style=&quot;&quot;&gt;2 Сообщение&lt;/span&gt;" style="text;html=1;align=center;verticalAlign=middle;resizable=0;points=[];autosize=1;strokeColor=none;fillColor=none;" parent="1" vertex="1">
          <mxGeometry x="915" y="-10" width="100" height="30" as="geometry" />
        </mxCell>
        <mxCell id="V0AG9TPLIWUdoYBlm5Sm-53" value="&lt;font style=&quot;font-size: 8px;&quot;&gt;Команда&amp;nbsp;&lt;br&gt;/description&lt;br&gt;вызывается по желанию пользователя для прочтения описания бота&lt;/font&gt;" style="text;html=1;strokeColor=none;fillColor=none;align=center;verticalAlign=middle;whiteSpace=wrap;rounded=0;" parent="1" vertex="1">
          <mxGeometry x="410" y="560" width="60" height="30" as="geometry" />
        </mxCell>
        <mxCell id="V0AG9TPLIWUdoYBlm5Sm-57" value="&lt;font color=&quot;#ff3333&quot;&gt;/description&lt;br&gt;&lt;/font&gt;" style="whiteSpace=wrap;html=1;aspect=fixed;" parent="1" vertex="1">
          <mxGeometry x="360" y="555" width="40" height="40" as="geometry" />
        </mxCell>
        <mxCell id="V0AG9TPLIWUdoYBlm5Sm-58" value="1 Добавить анекдот в бота&lt;br&gt;2 Панель администрации" style="text;html=1;strokeColor=none;fillColor=none;align=center;verticalAlign=middle;whiteSpace=wrap;rounded=0;" parent="1" vertex="1">
          <mxGeometry x="500" y="380" width="150" height="30" as="geometry" />
        </mxCell>
        <mxCell id="V0AG9TPLIWUdoYBlm5Sm-59" value="&lt;font style=&quot;font-size: 18px;&quot;&gt;КНОПКИ&lt;/font&gt;" style="text;html=1;strokeColor=none;fillColor=none;align=center;verticalAlign=middle;whiteSpace=wrap;rounded=0;" parent="1" vertex="1">
          <mxGeometry x="530" y="40" width="60" height="30" as="geometry" />
        </mxCell>
        <mxCell id="V0AG9TPLIWUdoYBlm5Sm-62" value="" style="rounded=0;whiteSpace=wrap;html=1;" parent="1" vertex="1">
          <mxGeometry x="690" y="475" width="170" height="220" as="geometry" />
        </mxCell>
        <mxCell id="V0AG9TPLIWUdoYBlm5Sm-56" value="Если вы еще не испытывали чувство бурного веселья, когда смех заставляет вас задыхаться, и ваши анекдоты часто вызывают молчание в компании, когда взгляды одноклассников уклончиво скользят в сторону, у нас есть решение для вас. Представляем вам лучший в России сборник анекдотов, который подарит вам и вашим друзьям множество ярких и радостных моментов." style="text;html=1;strokeColor=none;fillColor=none;align=center;verticalAlign=middle;whiteSpace=wrap;rounded=0;" parent="1" vertex="1">
          <mxGeometry x="690" y="570" width="170" height="30" as="geometry" />
        </mxCell>
        <mxCell id="V0AG9TPLIWUdoYBlm5Sm-72" value="" style="strokeWidth=2;html=1;shape=mxgraph.flowchart.annotation_2;align=left;labelPosition=right;pointerEvents=1;" parent="1" vertex="1">
          <mxGeometry x="470" y="520" width="50" height="120" as="geometry" />
        </mxCell>
        <mxCell id="V0AG9TPLIWUdoYBlm5Sm-75" style="edgeStyle=orthogonalEdgeStyle;rounded=0;orthogonalLoop=1;jettySize=auto;html=1;entryX=-0.007;entryY=0.478;entryDx=0;entryDy=0;entryPerimeter=0;" parent="1" source="V0AG9TPLIWUdoYBlm5Sm-73" target="V0AG9TPLIWUdoYBlm5Sm-62" edge="1">
          <mxGeometry relative="1" as="geometry" />
        </mxCell>
        <mxCell id="V0AG9TPLIWUdoYBlm5Sm-73" value="Кнопки отсутствуют" style="text;html=1;align=center;verticalAlign=middle;resizable=0;points=[];autosize=1;strokeColor=none;fillColor=none;" parent="1" vertex="1">
          <mxGeometry x="505" y="565" width="130" height="30" as="geometry" />
        </mxCell>
        <mxCell id="V0AG9TPLIWUdoYBlm5Sm-76" value="Задачи:&lt;br&gt;&amp;nbsp;Добавить отзывы о анекдотах" style="text;html=1;align=center;verticalAlign=middle;resizable=0;points=[];autosize=1;strokeColor=none;fillColor=none;" parent="1" vertex="1">
          <mxGeometry x="35" y="593" width="190" height="40" as="geometry" />
        </mxCell>
      </root>
    </mxGraphModel>
  </diagram>
</mxfile>
